<svg width="21" height="24" viewBox="0 0 21 24" fill="none" xmlns="http://www.w3.org/2000/svg">
<g clip-path="url(#clip0_145_21375)">
<path d="M16.7402 24H0.467082C0.210187 24 0 23.7935 0 23.5359V2.44362C0 2.18835 0.207851 1.97949 0.467082 1.97949H4.75256C5.00945 1.97949 5.21964 2.18603 5.21964 2.44362C5.21964 2.70121 5.01179 2.90775 4.75256 2.90775H0.934164V23.0741H16.2731V15.6155C16.2731 15.3603 16.481 15.1514 16.7402 15.1514C16.9994 15.1514 17.2073 15.3579 17.2073 15.6155V23.5382C17.2073 23.7935 16.9994 24.0023 16.7402 24.0023V24Z" fill="white"/>
<path d="M16.7402 8.90231C16.4833 8.90231 16.2731 8.69578 16.2731 8.43818V2.90579H12.4524C12.1955 2.90579 11.9853 2.69926 11.9853 2.44167C11.9853 2.18408 12.1932 1.97754 12.4524 1.97754H16.7402C16.9971 1.97754 17.2073 2.18408 17.2073 2.44167V8.43818C17.2073 8.69345 16.9994 8.90231 16.7402 8.90231Z" fill="white"/>
<path d="M12.4524 4.88262H4.75022C4.49333 4.88262 4.28314 4.67608 4.28314 4.41849V0.464127C4.28314 0.208857 4.49099 0 4.75022 0H5.243C5.92961 0 6.4901 0.556952 6.4901 1.23922L6.51112 1.27403H10.6938L10.7149 1.23922C10.7149 0.556952 11.2754 0 11.962 0H12.4501C12.707 0 12.9172 0.206536 12.9172 0.464127V4.41849C12.9172 4.67376 12.7093 4.88262 12.4501 4.88262H12.4524ZM5.21731 3.95436H11.9853V0.928254H11.962C11.7891 0.928254 11.649 1.06749 11.649 1.23922C11.649 1.77529 11.2193 2.20228 10.6938 2.20228H6.51112C5.98332 2.20228 5.55594 1.77529 5.55594 1.25314C5.55594 1.06749 5.41582 0.928254 5.243 0.928254H5.21731V3.95436Z" fill="white"/>
<path d="M13.4286 10.9322H7.1627C6.9058 10.9322 6.69562 10.7256 6.69562 10.468C6.69562 10.2104 6.90347 10.0039 7.1627 10.0039H13.4286C13.6855 10.0039 13.8957 10.2104 13.8957 10.468C13.8957 10.7256 13.6878 10.9322 13.4286 10.9322Z" fill="white"/>
<path d="M12.6252 12.9419H7.1627C6.9058 12.9419 6.69562 12.7354 6.69562 12.4778C6.69562 12.2202 6.90347 12.0137 7.1627 12.0137H12.6252C12.8821 12.0137 13.0923 12.2202 13.0923 12.4778C13.0923 12.7354 12.8845 12.9419 12.6252 12.9419Z" fill="white"/>
<path d="M10.5887 14.9517H7.16035C6.90345 14.9517 6.69327 14.7452 6.69327 14.4876C6.69327 14.23 6.90112 14.0234 7.16035 14.0234H10.5887C10.8456 14.0234 11.0558 14.23 11.0558 14.4876C11.0558 14.7452 10.848 14.9517 10.5887 14.9517Z" fill="white"/>
<path d="M8.73442 16.9615H7.16035C6.90345 16.9615 6.69327 16.7549 6.69327 16.4973C6.69327 16.2397 6.90112 16.0332 7.16035 16.0332H8.73442C8.99131 16.0332 9.2015 16.2397 9.2015 16.4973C9.2015 16.7549 8.99365 16.9615 8.73442 16.9615Z" fill="white"/>
<path d="M4.15235 11.9787C4.04025 11.9787 3.93048 11.937 3.84407 11.8627L3.06404 11.1827C2.87021 11.0133 2.85152 10.7209 3.02201 10.5283C3.19249 10.3357 3.48675 10.3171 3.68059 10.4866L4.1033 10.8555L5.14956 9.62792C5.31538 9.43299 5.60964 9.40746 5.80815 9.57455C6.00432 9.73931 6.03001 10.0317 5.86187 10.229L4.50966 11.8163C4.42792 11.9114 4.31349 11.9694 4.18738 11.9787C4.1757 11.9787 4.16402 11.9787 4.15235 11.9787Z" fill="white"/>
<path d="M4.15235 14.719C4.04025 14.719 3.93048 14.6772 3.84407 14.6029L3.06404 13.923C2.87021 13.7536 2.85152 13.4612 3.02201 13.2686C3.19249 13.0759 3.48675 13.0574 3.68059 13.2268L4.1033 13.5958L5.14956 12.3682C5.31538 12.1732 5.60964 12.1477 5.80815 12.3148C6.00432 12.4795 6.03001 12.7719 5.86187 12.9692L4.50966 14.5565C4.42792 14.6517 4.31349 14.7097 4.18738 14.719C4.1757 14.719 4.16402 14.719 4.15235 14.719Z" fill="white"/>
<path d="M4.15235 17.4065C4.04025 17.4065 3.93048 17.3647 3.84407 17.2904L3.06404 16.6105C2.87021 16.4411 2.85152 16.1487 3.02201 15.9561C3.19249 15.7634 3.48675 15.7449 3.68059 15.9143L4.1033 16.2833L5.14956 15.0557C5.31538 14.8607 5.60964 14.8352 5.80815 15.0023C6.00432 15.167 6.03001 15.4594 5.86187 15.6567L4.50966 17.244C4.42792 17.3392 4.31349 17.3972 4.18738 17.4065C4.1757 17.4065 4.16402 17.4065 4.15235 17.4065Z" fill="white"/>
<path d="M20.8435 9.4222L19.3909 7.97877C19.2158 7.80472 18.9612 7.77223 18.8234 7.90915L17.8449 8.88149L9.46542 17.2079C9.33931 17.3332 9.25757 17.6883 9.1478 17.9529C8.93762 18.6351 8.6527 19.5634 8.613 19.6817C8.56162 19.807 8.48688 20.0577 8.58731 20.1598C8.69006 20.2619 8.94462 20.1853 9.07307 20.1319C9.19918 20.0902 10.1287 19.807 10.8106 19.6028C11.0231 19.5425 11.3594 19.4798 11.4855 19.3568L19.9351 10.9608L20.9136 9.98844C21.0514 9.85152 21.0187 9.60089 20.8435 9.42452V9.4222ZM10.1427 17.5212L18.0948 9.61946L19.1947 10.7125L11.2427 18.6142L10.1427 17.5212ZM9.83675 18.0921L10.6682 18.9182C10.1404 19.076 9.75034 19.1944 9.47476 19.2779C9.56117 19.0041 9.67094 18.6142 9.83675 18.0921ZM19.6922 10.2228L18.5875 9.12516L19.071 8.64479L20.1756 9.74245L19.6922 10.2228Z" fill="white"/>
</g>
<defs>
<clipPath id="clip0_145_21375">
<rect width="21" height="24" fill="white"/>
</clipPath>
</defs>
</svg>
