<svg width="26" height="23" viewBox="0 0 26 23" fill="none" xmlns="http://www.w3.org/2000/svg">
<g clip-path="url(#clip0_145_21390)">
<path d="M23.231 10.3426H16.6798C16.4112 10.3426 16.1914 10.1244 16.1914 9.85782C16.1914 9.59119 16.4087 9.37305 16.6798 9.37305H23.231C23.4996 9.37305 23.7194 9.59119 23.7194 9.85782C23.7194 10.1244 23.5021 10.3426 23.231 10.3426Z" fill="white"/>
<path d="M23.231 18.7947H20.8576C20.589 18.7947 20.3693 18.5766 20.3693 18.31C20.3693 18.0433 20.5866 17.8252 20.8576 17.8252H23.231C23.4996 17.8252 23.7194 18.0433 23.7194 18.31C23.7194 18.5766 23.5021 18.7947 23.231 18.7947Z" fill="white"/>
<path d="M23.1724 12.4705H17.5661C17.2975 12.4705 17.0778 12.2524 17.0778 11.9857C17.0778 11.7191 17.2951 11.501 17.5661 11.501H23.1724C23.441 11.501 23.6608 11.7191 23.6608 11.9857C23.6608 12.2524 23.4435 12.4705 23.1724 12.4705Z" fill="white"/>
<path d="M23.231 14.5701H16.6798C16.4112 14.5701 16.1914 14.352 16.1914 14.0854C16.1914 13.8187 16.4087 13.6006 16.6798 13.6006H23.231C23.4996 13.6006 23.7194 13.8187 23.7194 14.0854C23.7194 14.352 23.5021 14.5701 23.231 14.5701Z" fill="white"/>
<path d="M26 6.22447C26 6.06692 25.9243 5.92634 25.8071 5.83908L20.0689 0.143008C20.0689 0.143008 20.0665 0.143008 20.0665 0.140584C20.0372 0.111498 20.003 0.0872589 19.9688 0.0678681C19.959 0.0630203 19.9493 0.0557488 19.9395 0.050901C19.9029 0.033934 19.8638 0.016967 19.8223 0.00969544C19.8223 0.00969544 19.8199 0.00969544 19.8174 0.00969544C19.7881 0.00484772 19.7564 0 19.7246 0H8.49003C8.219 0 8.00168 0.215723 8.00168 0.484772V5.19433C8.18481 5.17736 8.37039 5.16767 8.5584 5.16767C8.69758 5.16767 8.83921 5.17009 8.97839 5.18463V0.969544H19.2363V6.22447C19.2363 6.4911 19.4536 6.70924 19.7246 6.70924H25.0184V22.0329H8.97839V17.6724C8.83921 17.6845 8.69758 17.6893 8.5584 17.6893C8.37039 17.6893 8.18481 17.6796 8.00168 17.6627V22.5177C8.00168 22.7867 8.219 23.0024 8.49003 23.0024H25.5043C25.7753 23.0024 25.9927 22.7867 25.9927 22.5177V6.28749C25.9951 6.26568 26 6.24629 26 6.22447ZM20.213 5.7397V1.65307L24.3274 5.73727H20.213V5.7397Z" fill="white"/>
<path d="M1.76296 19.1486C1.51146 19.1486 1.27461 19.0492 1.09636 18.8723L0.273479 18.053C-0.0927872 17.6894 -0.0927872 17.0956 0.273479 16.732L3.20849 13.8937C2.97164 13.4041 2.63956 12.5169 2.63956 11.4456C2.63956 8.50302 4.86401 6.08885 7.81123 5.8295C8.13843 5.80041 8.42168 5.79314 8.71713 5.82223C11.6741 6.01856 14.0011 8.48847 14.0011 11.4456C14.0011 14.4027 11.6741 16.875 8.70248 17.0714C8.43633 17.0956 8.13355 17.0907 7.80879 17.0617C6.88824 16.9817 5.99211 16.6714 5.21074 16.1648L5.18633 16.16L2.42224 18.8771C2.24643 19.0517 2.00958 19.1486 1.75808 19.1486H1.76296ZM0.988918 17.3937L1.76296 18.1645L5.10819 14.8778L5.45004 15.1614C5.48666 15.1929 5.5062 15.2098 5.52085 15.2195C5.53062 15.222 5.55503 15.2341 5.60387 15.2632H5.61608L5.69421 15.3189C6.35105 15.7601 7.11289 16.0291 7.89669 16.097C8.13599 16.1188 8.38017 16.1285 8.62679 16.1042C11.1003 15.9394 13.0269 13.8937 13.0269 11.4432C13.0269 8.99264 11.1003 6.9469 8.64144 6.7845C8.36551 6.76026 8.13599 6.76996 7.89914 6.79177C5.45736 7.00507 3.61627 9.00718 3.61627 11.4432C3.61627 12.4345 3.96056 13.2368 4.16566 13.6246C4.1852 13.6634 4.2145 13.7143 4.22427 13.7313L4.42449 14.0609L4.14857 14.3348L0.988918 17.3913V17.3937Z" fill="white"/>
</g>
<defs>
<clipPath id="clip0_145_21390">
<rect width="26" height="23" fill="white"/>
</clipPath>
</defs>
</svg>
