<svg width="16" height="16" viewBox="0 0 16 16" fill="none" xmlns="http://www.w3.org/2000/svg">
<path d="M13.965 2.45134C13.965 1.65161 13.3144 1.00098 12.5146 1.00098H3.44993C2.6502 1.00098 1.99957 1.65161 1.99957 2.45134V13.5103C1.99957 14.31 2.6502 14.9607 3.44993 14.9607H7.00117V14.9605C7.27396 14.9575 7.49422 14.7355 7.49422 14.462C7.49422 14.1885 7.27396 13.9666 7.00117 13.9636V13.9636H6.99855C6.99758 13.9636 6.99663 13.9635 6.99566 13.9635C6.99468 13.9635 6.99374 13.9635 6.99276 13.9636H3.44993C3.20065 13.9636 2.9967 13.7596 2.9967 13.5103V2.45134C2.9967 2.20205 3.20066 1.99811 3.44993 1.99811H12.5147C12.7639 1.99811 12.9679 2.20207 12.9679 2.45134V9.99454H10.4298C9.63003 9.99454 8.9794 10.6452 8.9794 11.4449V13.983V14.9801H9.97652H9.97978L10.2718 14.6881L13.6729 11.287L13.965 10.9949V10.9917V9.99469V2.45134H13.965ZM12.5522 10.9921L9.97652 13.5668V11.4449C9.97652 11.1946 10.1794 10.9917 10.4297 10.9917H12.9679L12.5522 10.9921Z" fill="#00BDA1"/>
<path d="M5.46013 5.54056H10.5364C10.7857 5.54056 10.9896 5.3366 10.9896 5.08733V4.99669C10.9896 4.7474 10.7856 4.54346 10.5364 4.54346H5.46013C5.21084 4.54346 5.0069 4.74741 5.0069 4.99669V5.08733C5.0069 5.3366 5.21084 5.54056 5.46013 5.54056Z" fill="#00BDA1"/>
<path d="M5.0069 7.08586C5.0069 7.33515 5.21085 7.53909 5.46013 7.53909H10.5364C10.7857 7.53909 10.9896 7.33513 10.9896 7.08586V6.99522C10.9896 6.74593 10.7856 6.54199 10.5364 6.54199H5.46013C5.21084 6.54199 5.0069 6.74595 5.0069 6.99522V7.08586Z" fill="#00BDA1"/>
</svg>
