<svg width="16" height="16" viewBox="0 0 16 16" fill="none" xmlns="http://www.w3.org/2000/svg">
<path d="M7.99994 3.27197C4.84789 3.27197 2.15605 5.23255 1.06543 8.00005C2.15603 10.7675 4.84789 12.7281 7.99994 12.7281C11.1551 12.7281 13.8439 10.7675 14.9345 8.00005C13.8438 5.23255 11.1551 3.27197 7.99994 3.27197ZM7.99994 11.1521C6.26002 11.1521 4.84789 9.73999 4.84789 8.00005C4.84789 6.26011 6.26 4.84799 7.99994 4.84799C9.73988 4.84799 11.152 6.26011 11.152 8.00005C11.152 9.73999 9.73987 11.1521 7.99994 11.1521ZM7.99994 6.10882C6.95662 6.10882 6.10871 6.95672 6.10871 8.00005C6.10871 9.04337 6.95662 9.89128 7.99994 9.89128C9.04327 9.89128 9.89117 9.04337 9.89117 8.00005C9.89117 6.95672 9.04327 6.10882 7.99994 6.10882Z" fill="#3B63C9"/>
<line x1="1.35355" y1="1.64645" x2="14.3536" y2="14.6464" stroke="#3B63C9"/>
</svg>
