<?xml version="1.0" standalone="no"?><!DOCTYPE svg PUBLIC "-//W3C//DTD SVG 1.1//EN" "http://www.w3.org/Graphics/SVG/1.1/DTD/svg11.dtd"><svg t="1688629874957" class="icon" viewBox="0 0 1024 1024" version="1.1" xmlns="http://www.w3.org/2000/svg" p-id="1785" xmlns:xlink="http://www.w3.org/1999/xlink" width="200" height="200"><path d="M666.801157 157.013033c-97.419773 0-189.530634-35.530215-285.457404-73.362868-34.733059-13.69593-66.119907-19.135826-94.101191-19.130709-107.895359 0.010233-164.835186 80.897472-164.835186 80.897472l0 800.921295c0 8.492418 6.881734 15.378246 15.378246 15.378246 8.490372 0 15.373129-6.885827 15.373129-15.378246L153.15875 539.788903c23.232121-14.812357 60.190871-30.422893 112.810299-30.422893 33.520441 0.005117 73.40687 6.341429 120.128985 23.257703 120.778784 43.75248 218.294748 58.32743 294.671253 58.32743 152.71924 0 220.824361-58.32743 220.824361-58.32743L901.593648 81.277118C817.587372 136.602168 740.673631 157.013033 666.801157 157.013033L666.801157 157.013033zM666.801157 157.013033" fill="#00BDA1" p-id="1786"></path></svg>