<svg width="23" height="23" viewBox="0 0 23 23" fill="none" xmlns="http://www.w3.org/2000/svg">
<g clip-path="url(#clip0_145_21371)">
<path d="M18.2294 10.9174H22.0861V7.46096C22.0861 6.79041 21.5377 6.24177 20.8676 6.24177H12.7703C12.5388 9.89934 9.49854 12.8071 5.78808 12.8071C4.38676 12.8071 3.07682 12.3865 1.98013 11.6733V20.2624C1.98013 21.6097 3.07073 22.7008 4.41722 22.7008H20.8676C21.5377 22.7008 22.0861 22.1522 22.0861 21.4816V18.4398H18.2294C16.1579 18.4398 14.4702 16.7512 14.4702 14.6786C14.4702 12.6059 16.1579 10.9174 18.2294 10.9174ZM20.2583 4.41299V3.1938C20.2583 2.52324 19.7099 1.97461 19.0397 1.97461H11.6554C12.1306 2.70612 12.4779 3.52908 12.6546 4.41299H20.2583Z" stroke="white" stroke-miterlimit="10"/>
<path d="M5.78807 0.304688C2.75999 0.304688 0.304626 2.76135 0.304626 5.79104C0.304626 8.82072 2.75999 11.2774 5.78807 11.2774C8.81615 11.2774 11.2715 8.82072 11.2715 5.79104C11.2715 2.76135 8.81615 0.304688 5.78807 0.304688ZM22.3907 12.4417H18.2294C16.9926 12.4417 15.9934 13.4414 15.9934 14.6789C15.9934 15.9164 16.9926 16.9161 18.2294 16.9161H22.3907C22.5613 16.9161 22.6954 16.782 22.6954 16.6113V12.7526C22.6954 12.5819 22.5613 12.4478 22.3907 12.4478V12.4417ZM18.7351 15.5933C18.2294 15.5933 17.8212 15.1849 17.8212 14.6789C17.8212 14.173 18.2294 13.7645 18.7351 13.7645C19.2408 13.7645 19.649 14.173 19.649 14.6789C19.649 15.1849 19.2408 15.5933 18.7351 15.5933Z" stroke="white" stroke-miterlimit="10"/>
<path d="M6.17802 3.17644C6.75683 3.21302 7.17723 3.3898 7.57325 3.76165L7.06756 4.26152C6.81166 4.01768 6.48266 3.89577 6.111 3.86529V5.44414C6.89696 5.55996 7.09802 5.66359 7.32954 5.87085C7.6159 6.12079 7.75603 6.49264 7.75603 6.93764C7.75603 7.80936 7.12239 8.358 6.17802 8.44334V9.2541H5.58093V8.46163C4.88636 8.43115 4.37458 8.24217 3.91153 7.77279L4.4355 7.25463C4.78888 7.6082 5.17272 7.73011 5.64186 7.7545V6.13298C5.00822 6.05983 4.70358 5.91352 4.47206 5.69407C4.21617 5.45023 4.08213 5.12105 4.08213 4.70043C4.08213 3.86529 4.63656 3.27398 5.57484 3.18864V2.53027H6.17193V3.18254L6.17802 3.17644ZM5.64186 3.87138C5.13007 3.92015 4.8559 4.24323 4.8559 4.66995C4.8559 4.85892 4.91683 5.02961 5.05087 5.15153C5.20319 5.29174 5.41643 5.36489 5.64186 5.39537V3.87748V3.87138ZM6.111 7.73621C6.65325 7.68744 6.97617 7.40703 6.97617 6.95593C6.97617 6.73038 6.90915 6.54141 6.76901 6.41339C6.59232 6.2549 6.38517 6.22442 6.111 6.18784V7.73621Z" fill="white"/>
</g>
<defs>
<clipPath id="clip0_145_21371">
<rect width="23" height="23" fill="white"/>
</clipPath>
</defs>
</svg>
