<svg width="16" height="16" viewBox="0 0 16 16" fill="none" xmlns="http://www.w3.org/2000/svg">
<path d="M11.7496 5.3335H11.1247V4.095C11.1243 3.27428 10.7949 2.48728 10.209 1.90694C9.62314 1.3266 8.82859 1.0004 8 1C7.1714 1.0004 6.37686 1.3266 5.79096 1.90694C5.20505 2.48728 4.87572 3.27428 4.87532 4.095V5.3335H4.24937C3.91826 5.33456 3.60102 5.46534 3.36693 5.6973C3.13284 5.92925 3.00093 6.24353 3 6.5715V12.7615C3.0008 13.0896 3.13272 13.4041 3.36693 13.6362C3.60114 13.8683 3.91859 13.9991 4.24987 14H11.7496C12.0809 13.9992 12.3984 13.8685 12.6327 13.6366C12.867 13.4046 12.9991 13.0901 13 12.762V6.5715C12.9991 6.24336 12.867 5.92893 12.6327 5.69695C12.3984 5.46496 12.0809 5.33429 11.7496 5.3335ZM8 10.905C7.66871 10.9041 7.35127 10.7733 7.11706 10.5412C6.88285 10.3091 6.75093 9.99464 6.75013 9.6665C6.75106 9.33845 6.88304 9.02409 7.11724 8.79212C7.35143 8.56015 7.6688 8.42942 8 8.4285C8.3312 8.42942 8.64857 8.56015 8.88276 8.79212C9.11696 9.02409 9.24894 9.33845 9.24987 9.6665C9.24907 9.99464 9.11715 10.3091 8.88294 10.5412C8.64873 10.7733 8.33129 10.9041 8 10.905ZM9.93741 5.3335H6.06259V4.095C6.063 3.58617 6.26724 3.0983 6.63049 2.7385C6.99374 2.3787 7.48629 2.1764 8 2.176C8.51371 2.1764 9.00626 2.3787 9.36951 2.7385C9.73276 3.0983 9.937 3.58617 9.93741 4.095V5.3335Z" fill="#606060"/>
</svg>
