<svg width="26" height="25" viewBox="0 0 26 25" fill="none" xmlns="http://www.w3.org/2000/svg">
<g clip-path="url(#clip0_145_21386)">
<path d="M14.9118 14.3262C14.9118 13.9096 14.5676 13.5687 14.1471 13.5687H11.0882C10.6676 13.5687 10.3235 13.9096 10.3235 14.3262V20.3868H14.9118V14.3262ZM21.4118 11.2959C21.4118 10.8793 21.0676 10.5384 20.6471 10.5384H17.5882C17.1676 10.5384 16.8235 10.8793 16.8235 11.2959V20.3868H21.4118V11.2959ZM8.41177 9.0232C8.41177 8.60653 8.06765 8.26562 7.64706 8.26562H4.58824C4.16765 8.26562 3.82353 8.60653 3.82353 9.0232V20.3868H8.41177V9.0232ZM24.4706 22.349H1.52941C0.894708 22.349 0.382355 22.8565 0.382355 23.4853C0.382355 24.1141 0.894708 24.6217 1.52941 24.6217H24.4706C25.1053 24.6217 25.6176 24.1141 25.6176 23.4853C25.6176 22.8565 25.1053 22.349 24.4706 22.349Z" stroke="white" stroke-miterlimit="10"/>
<path d="M23.1782 4.01484C23.1018 3.46938 22.4212 3.24211 22.0235 3.63605L21.4271 4.22696L17.9323 1.39362C17.5041 1.04514 16.8847 1.05271 16.4565 1.40878L11.7994 5.36332L5.26882 0.598169C4.75646 0.226957 4.04529 0.333018 3.66293 0.840593C3.28823 1.34817 3.39529 2.06029 3.90764 2.4315L11.1723 7.73453C11.3788 7.88605 11.6159 7.95423 11.8529 7.95423C12.1206 7.95423 12.3882 7.86332 12.6023 7.6815L17.2288 3.75726L19.8059 5.84817L19.087 6.56029C18.6894 6.95423 18.9188 7.6209 19.4694 7.70423L22.9106 8.18908C23.3618 8.24968 23.7441 7.8709 23.6753 7.4315L23.1859 4.02241L23.1782 4.01484Z" stroke="white" stroke-miterlimit="10"/>
</g>
<defs>
<clipPath id="clip0_145_21386">
<rect width="26" height="25" fill="white"/>
</clipPath>
</defs>
</svg>
