<svg width="14" height="14" viewBox="0 0 14 14" fill="none" xmlns="http://www.w3.org/2000/svg">
<path d="M10.752 5.57903H5.03301L4.52201 4.48003C4.30501 4.01803 4.28401 3.50003 4.45901 3.02403C4.63401 2.54103 4.98401 2.16303 5.44601 1.94603C5.69801 1.83403 5.96401 1.77103 6.24401 1.77103C6.98601 1.77103 7.66501 2.20503 7.98001 2.87703L8.21101 3.38103L8.21801 3.38803C8.26001 3.42303 8.40001 3.54903 8.57501 3.54903C8.63101 3.54903 8.68701 3.53503 8.73601 3.51403C8.98801 3.39503 8.98801 3.10103 8.98101 3.04503V3.03803L8.74301 2.52003C8.28801 1.55403 7.30801 0.93103 6.23701 0.93103C5.83801 0.93103 5.43901 1.02203 5.08201 1.19003C4.41701 1.50503 3.91301 2.05103 3.66101 2.74403C3.40901 3.43703 3.44401 4.18603 3.75201 4.85103C3.75201 4.85103 3.94101 5.24303 4.10201 5.57903H3.26201C2.77201 5.57903 2.45001 5.90803 2.45001 6.39103V11.802C2.45001 12.292 2.77901 12.614 3.26201 12.614H10.745C11.235 12.614 11.557 12.285 11.557 11.802V6.39803C11.557 5.90803 11.235 5.57903 10.752 5.57903ZM9.20501 8.25303L6.98601 10.472C6.90901 10.549 6.81101 10.584 6.71301 10.584C6.60801 10.584 6.50301 10.549 6.44001 10.472L5.06101 9.10003C4.90701 8.94603 4.90701 8.70103 5.06801 8.54703C5.22201 8.39303 5.46701 8.39303 5.61401 8.54703L6.69901 9.63903L8.64501 7.69303C8.79901 7.53903 9.04401 7.53903 9.19801 7.69303C9.35901 7.85403 9.35901 8.09903 9.20501 8.25303Z" fill="#3B63C9"/>
</svg>
